ffmpeg started on 2016-11-27 at 12:08:06
Report written to "Output/NVENCh264/results/ffmpeg/sintelllhq10000k.log"
Command line:
Tools/ffmpeg/ffmpeg -benchmark -y -i Input/y4m/sintel.y4m -c:v h264_nvenc -preset llhq -b:v 10000k -an Output/NVENCh264/encoded/sintelllhq10000k.mkv
ffmpeg version N-82227-gdb23fde Copyright (c) 2000-2016 the FFmpeg developers
  built with gcc 5.4.0 (Ubuntu 5.4.0-6ubuntu1~16.04.2) 20160609
  configuration: --prefix=/home/jaroslav/ffmpeg_build --pkg-config-flags=--static --extra-cflags=-I/home/jaroslav/ffmpeg_build/include --extra-ldflags=-L/home/jaroslav/ffmpeg_build/lib --bindir=/home/jaroslav/bin --enable-gpl --enable-libass --enable-libfdk-aac --enable-libfreetype --enable-libmp3lame --enable-libopus --enable-libtheora --enable-libvorbis --enable-libvpx --enable-libx264 --enable-libx265 --enable-nvenc --enable-libmfx --enable-libxvid --enable-libgsm --enable-libopencore-amrnb --enable-version3 --enable-nonfree
  libavutil      55. 35.100 / 55. 35.100
  libavcodec     57. 66.101 / 57. 66.101
  libavformat    57. 57.100 / 57. 57.100
  libavdevice    57.  2.100 / 57.  2.100
  libavfilter     6. 66.100 /  6. 66.100
  libswscale      4.  3.100 /  4.  3.100
  libswresample   2.  4.100 /  2.  4.100
  libpostproc    54.  2.100 / 54.  2.100
Input #0, yuv4mpegpipe, from 'Input/y4m/sintel.y4m':
  Duration: 00:00:20.83, start: 0.000000, bitrate: 2057307 kb/s
    Stream #0:0: Video: rawvideo (I420 / 0x30323449), yuv420p(progressive), 4096x1744, SAR 1:1 DAR 256:109, 24 fps, 24 tbr, 24 tbn, 24 tbc
[h264_nvenc @ 0x40331c0] The variable bitrate rate-control requires the 'qmin' and/or 'qmax' option set.
Output #0, matroska, to 'Output/NVENCh264/encoded/sintelllhq10000k.mkv':
  Metadata:
    encoder         : Lavf57.57.100
    Stream #0:0: Video: h264 (h264_nvenc) (Main) (H264 / 0x34363248), yuv420p, 4096x1744 [SAR 1:1 DAR 256:109], q=-1--1, 10000 kb/s, 24 fps, 1k tbn, 24 tbc
    Metadata:
      encoder         : Lavc57.66.101 h264_nvenc
    Side data:
      cpb: bitrate max/min/avg: 0/0/10000000 buffer size: 20000000 vbv_delay: -1
Stream mapping:
  Stream #0:0 -> #0:0 (rawvideo (native) -> h264 (h264_nvenc))
Press [q] to stop, [?] for help
frame=    3 fps=1.0 q=0.0 size=       0kB time=00:00:00.00 bitrate=N/A speed=   0x    frame=   22 fps=6.5 q=0.0 size=       0kB time=00:00:00.00 bitrate=N/A speed=   0x    frame=   33 fps=8.5 q=30.0 size=       1kB time=00:00:00.08 bitrate=  71.2kbits/s speed=0.0216x    frame=   54 fps= 12 q=35.0 size=       1kB time=00:00:00.95 bitrate=   6.2kbits/s speed=0.218x    frame=   75 fps= 15 q=32.0 size=       1kB time=00:00:01.83 bitrate=   3.3kbits/s speed=0.373x    frame=   96 fps= 18 q=34.0 size=       1kB time=00:00:02.70 bitrate=   2.2kbits/s speed=0.499x    frame=  117 fps= 20 q=28.0 size=       1kB time=00:00:03.58 bitrate=   1.7kbits/s speed=0.604x    frame=  135 fps= 21 q=30.0 size=    5149kB time=00:00:04.33 bitrate=9731.9kbits/s speed=0.671x    frame=  156 fps= 22 q=31.0 size=    5706kB time=00:00:05.20 bitrate=8973.4kbits/s speed=0.747x    frame=  177 fps= 24 q=32.0 size=    5706kB time=00:00:06.08 bitrate=7682.9kbits/s speed=0.813x    frame=  183 fps= 16 q=31.0 size=    5706kB time=00:00:06.33 bitrate=7379.6kbits/s speed=0.562x    frame=  203 fps= 17 q=29.0 size=    5706kB time=00:00:07.16 bitrate=6521.0kbits/s speed=0.609x    frame=  224 fps= 18 q=29.0 size=    5706kB time=00:00:08.04 bitrate=5811.6kbits/s speed=0.654x    frame=  245 fps= 19 q=32.0 size=    5706kB time=00:00:08.91 bitrate=5241.4kbits/s speed=0.696x    frame=  265 fps= 20 q=30.0 size=   10829kB time=00:00:09.75 bitrate=9097.8kbits/s speed=0.732x    frame=  286 fps= 21 q=28.0 size=   10829kB time=00:00:10.62 bitrate=8348.7kbits/s speed=0.768x    frame=  306 fps= 21 q=28.0 size=   13266kB time=00:00:11.45 bitrate=9483.5kbits/s speed= 0.8x    frame=  327 fps= 22 q=27.0 size=   13266kB time=00:00:12.33 bitrate=8810.7kbits/s speed=0.831x    frame=  348 fps= 23 q=26.0 size=   13266kB time=00:00:13.20 bitrate=8227.1kbits/s speed=0.86x    frame=  369 fps= 23 q=24.0 size=   13266kB time=00:00:14.08 bitrate=7715.9kbits/s speed=0.888x    frame=  390 fps= 24 q=24.0 size=   13266kB time=00:00:14.95 bitrate=7264.6kbits/s speed=0.913x    frame=  408 fps= 24 q=26.0 size=   18400kB time=00:00:15.70 bitrate=9595.5kbits/s speed=0.93x    frame=  429 fps= 25 q=29.0 size=   18400kB time=00:00:16.58 bitrate=9089.2kbits/s speed=0.954x    frame=  450 fps= 25 q=30.0 size=   21242kB time=00:00:17.45 bitrate=9967.1kbits/s speed=0.975x    frame=  471 fps= 26 q=29.0 size=   21242kB time=00:00:18.33 bitrate=9491.4kbits/s speed=0.995x    frame=  492 fps= 26 q=27.0 size=   21242kB time=00:00:19.20 bitrate=9059.1kbits/s speed=1.01x    frame=  500 fps= 26 q=29.0 Lsize=   25439kB time=00:00:20.79 bitrate=10022.5kbits/s speed=1.07x    
video:25434kB audio:0kB subtitle:0kB other streams:0kB global headers:0kB muxing overhead: 0.019129%
bench: utime=0.848s
bench: maxrss=1195548kB
